<svg id="Layer_1" data-name="Layer 1" xmlns="http://www.w3.org/2000/svg" viewBox="0 0 288.51 53"><defs><style>.cls-1{opacity:0.8;}.cls-2{fill:#333;}</style></defs><title>drops-design</title><g class="cls-1"><path class="cls-2" d="M283.81,35.28a4.36,4.36,0,0,0-.56-2.1,3.75,3.75,0,0,0-1.57-1.54,4.17,4.17,0,0,0-4.11,0A3.85,3.85,0,0,0,276,33.18a4.33,4.33,0,0,0-.56,2.1,4.12,4.12,0,0,0,.56,2.09,3.85,3.85,0,0,0,1.54,1.54,4.18,4.18,0,0,0,4.17,0,3.85,3.85,0,0,0,1.54-1.54A4.21,4.21,0,0,0,283.81,35.28Zm-1.09,1.78a3.38,3.38,0,0,1-1.32,1.33,3.65,3.65,0,0,1-3.56,0,3.39,3.39,0,0,1-1.32-1.33,3.56,3.56,0,0,1,0-3.56,3.43,3.43,0,0,1,1.34-1.33,3.55,3.55,0,0,1,3.51,0,3.42,3.42,0,0,1,1.34,1.33,3.68,3.68,0,0,1,.48,1.78A3.63,3.63,0,0,1,282.72,37.05Z"/><path class="cls-2" d="M279.53,35.7a3.94,3.94,0,0,1,.73,1l.35.64h.72l-.47-.76a4.63,4.63,0,0,0-.6-.82,1.05,1.05,0,0,0-.35-.22l-.17-.07h.18a1.24,1.24,0,0,0,.85-.37,1.1,1.1,0,0,0,.32-.77,1.08,1.08,0,0,0-.19-.59,1,1,0,0,0-.5-.39,3.61,3.61,0,0,0-1.07-.12h-1.4v4.12h.59V35.56H279A1,1,0,0,1,279.53,35.7Zm-1-2h.81a2,2,0,0,1,.7.07.59.59,0,0,1,.3.23.71.71,0,0,1,.11.36.66.66,0,0,1-.23.51,1.34,1.34,0,0,1-.83.18h-.87Z"/></g><path class="cls-2" d="M2.45,38.66H5.76V11.36H2.45v-.74h14.1c8.54,0,14.51,5.56,14.51,14.59,0,5.15-3.15,14.18-14.26,14.18H2.45Zm9.68,0h3.39c8,0,8.66-6.62,8.66-13.81,0-7.8-.69-13.48-8.13-13.48H12.13Z"/><path class="cls-2" d="M32.89,38.66H36.2V11.36H32.89v-.74H45.72c4.5,0,11.77.74,11.77,6.74,0,4.94-5.48,6.58-9.6,6.87v.08c6,.53,8.95,2.86,9,7.23.08,6.42.65,7,2.29,7A3.23,3.23,0,0,0,60.67,38l.29.61A8.64,8.64,0,0,1,56,40c-4.37,0-5.44-3.11-5.44-7.6,0-6.58-1.59-7.56-5.8-7.64H42.57V38.66H46v.74H32.89Zm9.68-14.59h2.29c4.7-.25,5.88-2,5.76-7.15S49,11.36,45.55,11.36h-3Z"/><path class="cls-2" d="M75,10c7.72,0,13,7,13,15,.16,7.64-5.76,15-13,15s-13.16-7.4-13-15C62,17,67.29,10,75,10Zm6.13,15c0-12.91-3-14.3-6.13-14.3S68.89,12.1,68.89,25c0,10.38,1.35,14.3,6.13,14.3S81.14,35.39,81.14,25Z"/><path class="cls-2" d="M89.85,38.66h3.31V11.36H89.85v-.74h14.59c7.15,0,10.5,2.66,10.5,7.68s-4.82,8.17-11,8.17c-1.72,0-3.19,0-4.41-.16V38.66h4v.74H89.85Zm9.68-13.12a7.59,7.59,0,0,0,1.72.2c4.86,0,6.82-2.37,6.82-7.19,0-5.19-.82-7.19-5.23-7.19H99.53Z"/><path class="cls-2" d="M117.43,28.56h.74c1,4.62,4.09,10.75,9.6,10.75,3.51,0,5.88-2.17,5.88-5.76,0-8.91-16.3-2.49-16.3-14.79,0-5.39,3.6-8.79,9-8.79,4.13,0,5.43,2.21,7.27,2.21,1.23,0,1.31-1.06,1.31-1.59h.74v9.19h-.74c-1-4.33-3.31-9.07-8.46-9.07A5.12,5.12,0,0,0,121,15.94c0,7.89,16.55,1.68,16.55,13.81,0,6.37-3.6,10.3-9.36,10.3-3.55,0-6.91-2.12-8.54-2.12a1.39,1.39,0,0,0-1.51,1.51h-.74Z"/><path class="cls-2" d="M150.69,38.66H154V11.36h-3.31v-.74h14.1c8.54,0,14.51,5.56,14.51,14.59,0,5.15-3.15,14.18-14.26,14.18H150.69Zm9.68,0h3.39c8,0,8.66-6.62,8.66-13.81,0-7.8-.69-13.48-8.13-13.48h-3.92Z"/><path class="cls-2" d="M187.79,29.5v3.43c0,2.78.41,6,4.21,6,3.19,0,5.56-2.37,6.46-6.17h.74c-.9,4-3.39,7.15-8.42,7.15a9,9,0,0,1-9.11-9.28c0-5.52,4.17-9.68,9-9.68,4.29-.08,8.38,4.17,8.42,8.58Zm5.15-.74V25.25c0-2.25-.61-3.6-2.58-3.6-1.39,0-2.57.86-2.57,3.6v3.51Z"/><path class="cls-2" d="M201.8,33h.74c.74,3,3.27,6.13,6.38,6.13,2.21,0,4-1.35,4-3.51,0-1.88-1.23-2.17-4.17-2.53-3.11-.37-7.11-.82-7.11-6.09a6.07,6.07,0,0,1,6.09-6.09c1.88,0,2.94.9,4.25.9.78,0,1.27-.41,1.27-.9h.61l.25,5.8h-.65c-1-2.66-2.66-5.07-5.72-5.07-2.21,0-3.88,1.14-3.88,3.06s1.43,2.17,3.72,2.49c4.37.61,7.8,1,7.8,6a6.67,6.67,0,0,1-6.54,6.7c-2.29,0-3.55-1-4.62-1a1.59,1.59,0,0,0-1.68,1h-.74Z"/><path class="cls-2" d="M217.74,38.66h2.82V22.15h-2.82v-.74h2.9c1.68,0,4.7,0,5.56-1.06V38.66H229v.74H217.74Zm5.64-27.87a3.31,3.31,0,1,1-3.31,3.31A3.3,3.3,0,0,1,223.38,10.79Z"/><path class="cls-2" d="M241.56,35.72c4-.08,6,1.72,6,5.68,0,5-3.72,8.83-9.4,8.83-4.54,0-8.09-2.33-8.09-5.35,0-2,1.88-3.6,3.51-4v-.08c-1.72-.49-2.66-2-2.66-4.09A4.47,4.47,0,0,1,235,32v-.08a5.31,5.31,0,0,1-3.39-5c0-3.72,3.68-6,7.11-6a8.44,8.44,0,0,1,5.11,1.47A4.31,4.31,0,0,1,247,20.6c1.23,0,2.78.74,2.78,2.17a2,2,0,0,1-2,2.08A1.82,1.82,0,0,1,245.81,23a1.78,1.78,0,0,1,1.1-1.8v-.08c-1.59.2-2,1.1-2.7,1.84A5.9,5.9,0,0,1,246,27.05c0,3.88-3.76,5.88-7.27,5.88a5.17,5.17,0,0,1-1.68-.25,5.22,5.22,0,0,0-1.35-.25c-1.55,0-3.31,1.1-3.31,2.13s1.39,1.14,2.41,1.14Zm-7.36,5.15A5.63,5.63,0,0,0,232.49,45c.08,2,2.08,4.45,5.76,4.45,4.13,0,7.8-2.78,7.8-5.76,0-2.49-1.35-2.86-5.43-2.86Zm7.11-14c0-4.7-.65-5.23-2.58-5.23-2.12,0-2.49,1.8-2.49,5.11,0,4.9.86,5.43,2.49,5.43C240.21,32.2,241.27,31.92,241.31,26.89Z"/><path class="cls-2" d="M249.24,38.66h2.82V22.15h-2.82v-.74h2.9c1.68,0,4.7,0,5.56-1.06v4.37h.08a7.18,7.18,0,0,1,6.54-3.8c3.88,0,5.76,1.92,5.76,6.33v11.4h2.82v.74H262.11v-.74h2.33V25.74c0-2.86-1.23-3.35-2.41-3.35-2.29,0-4.33,3-4.33,5.07v11.2h2.41v.74H249.24Z"/></svg>