<?xml version="1.0" encoding="UTF-8"?><svg id="Laag_1" xmlns="http://www.w3.org/2000/svg" viewBox="0 0 534.25 135.66"><defs><style>.cls-1{fill:#1d5f65;stroke-width:0px;}.cls-2{stroke-miterlimit:10;}.cls-2,.cls-3{fill:none;stroke:#96c480;stroke-width:2px;}.cls-3{stroke-linecap:round;stroke-linejoin:round;}</style></defs><path class="cls-1" d="m54.19,44.88v22.32h-4.32v-22.32h-27.36v22.32h-4.32V18.23h4.32v22.32h27.36v-22.32h4.32v26.64Z"/><path class="cls-1" d="m65.7,42.72c0-13.75,9.86-24.48,21.6-24.48s21.6,10.73,21.6,24.48-9.86,24.48-21.6,24.48-21.6-10.73-21.6-24.48Zm4.32,0c0,11.02,7.56,20.16,17.28,20.16s17.28-9.15,17.28-20.16-7.56-20.16-17.28-20.16-17.28,9.15-17.28,20.16Z"/><path class="cls-1" d="m148.26,41.91c4.83,2.2,8.16,6.82,8.16,12.04,0,7.13-6.48,13.25-14.47,13.25h-19.37c-1.22,0-2.16-.94-2.16-2.16l.03-20.16h-.03l.04-2.12c.01-7.43.02-14.86.04-22.29,0-1.22.94-2.16,2.16-2.16l16.42-.07c8.14,0,14.62,6.12,14.62,13.39,0,4.08-2.1,7.83-5.43,10.29Zm-23.49-1.29l14.3-.06c5.47,0,10.3-3.96,10.3-8.93s-4.75-9.07-10.3-9.07h-14.33l.03,18.06Zm0,4.26l.03,18.07,17.14-.07c5.4,0,10.15-3.96,10.15-8.93s-4.75-9.07-10.15-9.07h-17.17Z"/><path class="cls-1" d="m194.34,41.91c4.83,2.2,8.16,6.82,8.16,12.04,0,7.13-6.48,13.25-14.47,13.25h-19.37c-1.22,0-2.16-.94-2.16-2.16l.03-20.16h-.03l.04-2.12c.01-7.43.02-14.86.04-22.29,0-1.22.94-2.16,2.16-2.16l16.42-.07c8.14,0,14.62,6.12,14.62,13.39,0,4.08-2.1,7.83-5.43,10.29Zm-23.49-1.29l14.3-.06c5.47,0,10.3-3.96,10.3-8.93s-4.75-9.07-10.3-9.07h-14.33l.03,18.06Zm0,4.26l.03,18.07,17.14-.07c5.4,0,10.15-3.96,10.15-8.93s-4.75-9.07-10.15-9.07h-17.17Z"/><path class="cls-1" d="m227.13,43.3v23.89h-4.32v-23.88l-14.19-21.77-2.16-3.31h5.11l.65,1.01,12.75,19.51,12.46-19.51.65-1.01h5.11l-2.16,3.31-13.9,21.76Z"/><path class="cls-1" d="m301.29,44.88h-2.16v-4.32h21.46c1.22,0,2.16.94,2.16,2.16,0,13.75-9.87,24.48-21.53,24.48s-21.67-10.73-21.67-24.48,9.79-24.48,21.67-24.48c8.06-.07,15.62,4.97,18.43,10.66l1.58,3.1h-4.9l-.58-1.22c-2.23-4.39-8.21-8.28-14.54-8.21-9.72,0-17.35,9.15-17.35,20.16s7.63,20.16,17.35,20.16,17.21-9.15,17.21-18h-17.14Z"/><path class="cls-1" d="m333.61,20.39v-2.16h4.32v48.96h-4.32V20.39Z"/><path class="cls-1" d="m370.4,44.88h-2.16v-4.32h21.46c1.22,0,2.16.94,2.16,2.16,0,13.75-9.87,24.48-21.53,24.48s-21.67-10.73-21.67-24.48,9.79-24.48,21.67-24.48c8.06-.07,15.62,4.97,18.43,10.66l1.58,3.1h-4.9l-.58-1.22c-2.23-4.39-8.21-8.28-14.54-8.21-9.72,0-17.35,9.15-17.35,20.16s7.63,20.16,17.35,20.16,17.21-9.15,17.21-18h-17.14Z"/><path class="cls-1" d="m406.69,56.11c-.22,0-.42-.03-.61-.07l-4.29,9.87c-1.15,2.66-5.11.94-4.03-1.73l19.44-44.64c.72-1.58,3.31-1.58,4.03,0l19.44,44.64c1.08,2.66-2.88,4.39-4.03,1.73l-4.3-9.9c-.22.07-.47.11-.74.11h-24.91Zm23.82-4.32l-11.29-25.99-11.29,25.99h22.59Z"/><path class="cls-1" d="m453.78,65.04v2.16h-4.32V20.39c0-1.94,2.81-2.81,3.89-1.22l27.72,39.1.07-37.88v-2.16h4.32v2.16l-.07,44.64c0,1.94-2.81,2.81-3.89,1.22l-27.72-39.1v37.88Z"/><path class="cls-1" d="m515.05,18.23h16.49v4.32h-16.49v44.64h-4.32V22.55h-16.63v-4.32h20.95Z"/><path class="cls-1" d="m208.79,83.62c1.14,0,2.2.41,3.19,1.23l.2.17-1.01,1.23-.2-.17c-.73-.6-1.44-.9-2.13-.9-.22,0-.44.03-.64.08-.8.21-1.41.74-1.82,1.6-.24.52-.36,1.04-.36,1.54,0,.39.06.76.2,1.09.41,1.05,1.25,1.81,2.52,2.3,2.35.92,3.89,2.26,4.62,4.03.26.6.39,1.26.39,1.99,0,1.01-.26,1.93-.78,2.77-.5.84-1.2,1.51-2.09,2.02s-1.88.76-2.98.76c-1.64,0-3.27-.59-4.87-1.76l-.22-.14.92-1.29.22.17c1.36.99,2.69,1.48,3.98,1.48.17,0,.42-.02.76-.06,1.29-.22,2.27-.89,2.94-1.99.37-.6.56-1.25.56-1.96,0-.48-.09-.95-.28-1.4-.54-1.34-1.78-2.4-3.72-3.16-1.74-.67-2.88-1.74-3.44-3.19-.21-.56-.31-1.11-.31-1.65,0-.78.18-1.53.53-2.24.63-1.29,1.58-2.1,2.83-2.44.28-.07.62-.11,1.01-.11Z"/><path class="cls-1" d="m217.17,88.68c.21-.21.46-.31.76-.31s.55.1.76.31c.21.21.31.46.31.76s-.1.55-.31.76-.46.31-.76.31-.55-.1-.76-.31c-.21-.21-.31-.46-.31-.76s.1-.55.31-.76Zm-.03,2.63h1.57v11.59h-1.57v-11.59Z"/><path class="cls-1" d="m228.09,91.01c1.57,0,2.9.61,3.99,1.82s1.64,2.67,1.64,4.37v5.71h-1.57v-5.71c0-1.29-.4-2.38-1.2-3.26-.8-.89-1.75-1.33-2.86-1.33s-2.05.44-2.84,1.33c-.79.89-1.19,1.97-1.19,3.26v5.71h-1.6v-11.59h1.6v1.6c1.12-1.27,2.46-1.9,4.03-1.9Z"/><path class="cls-1" d="m246.51,83.34h1.6v19.57h-1.6v-1.46c-1.12,1.27-2.46,1.9-4.03,1.9s-2.9-.61-3.99-1.82-1.64-2.66-1.64-4.34.55-3.15,1.64-4.37,2.42-1.82,3.99-1.82,2.91.63,4.03,1.9v-9.58Zm-1.19,10.6c-.79-.89-1.74-1.33-2.84-1.33s-2.05.44-2.86,1.33c-.8.89-1.2,1.97-1.2,3.26s.4,2.38,1.2,3.26,1.75,1.33,2.86,1.33,2.05-.44,2.84-1.33c.79-.89,1.19-1.97,1.19-3.26s-.4-2.38-1.19-3.26Z"/><path class="cls-1" d="m254.99,90.9c.73,0,1.42.28,2.07.84l.2.17-1.04,1.2-.2-.17c-.37-.3-.71-.45-1.01-.45-.13,0-.22,0-.28.03-.37.09-.66.36-.87.78-.13.3-.2.56-.2.78,0,.15.04.34.11.56.21.52.63.92,1.29,1.18,1.46.58,2.42,1.46,2.88,2.63.17.41.25.84.25,1.29,0,.63-.17,1.24-.5,1.82-.6.99-1.46,1.59-2.58,1.79-.26.04-.48.06-.64.06-1.04,0-2.07-.38-3.08-1.15l-.2-.17.95-1.26.2.17c.69.54,1.38.81,2.07.81.19,0,.33,0,.42-.03.67-.11,1.17-.45,1.48-1.01.19-.3.28-.64.28-1.04,0-.28-.05-.52-.14-.73-.3-.73-.96-1.3-1.99-1.71-1.08-.43-1.8-1.14-2.16-2.13-.13-.37-.2-.76-.2-1.15,0-.49.1-.95.31-1.4.41-.86,1.04-1.4,1.88-1.62.3-.07.52-.11.67-.11Z"/><path class="cls-1" d="m268.1,84.09h3.16v18.82h-1.57v-17.22h-1.6v-1.6Z"/><path class="cls-1" d="m281.4,103.02l-1.4-.73,3.53-6.61c-.62.21-1.23.31-1.85.31-1.64,0-3.04-.6-4.19-1.81-1.15-1.2-1.72-2.65-1.72-4.33s.57-3.12,1.72-4.33c1.15-1.2,2.54-1.81,4.19-1.81s3.04.6,4.19,1.81c1.15,1.2,1.72,2.65,1.72,4.33,0,.9-.18,1.75-.53,2.58l-.14.28-.11.22-5.29,9.86-.11.22Zm.28-8.6c.77,0,1.47-.19,2.11-.57.64-.38,1.16-.9,1.55-1.55l.2-.39c.32-.69.48-1.37.48-2.04,0-1.27-.42-2.34-1.27-3.22-.85-.88-1.87-1.32-3.07-1.32s-2.21.44-3.05,1.32c-.84.88-1.26,1.95-1.26,3.22s.42,2.35,1.26,3.23c.84.89,1.86,1.33,3.05,1.33Z"/><path class="cls-1" d="m289.66,84.09h11.82l-7.06,18.98-1.46-.53,6.24-16.88h-9.55v-1.57Z"/><path class="cls-1" d="m305.53,84.09h9.35v1.57h-7.92l-.5,5.96c1.06-.78,2.24-1.18,3.53-1.18,1.68,0,3.11.62,4.28,1.85s1.76,2.72,1.76,4.45-.59,3.22-1.76,4.45c-1.18,1.23-2.6,1.85-4.28,1.85-1.12,0-2.15-.29-3.09-.88s-1.68-1.37-2.2-2.34l-.14-.22,1.4-.76.11.22c.39.73.94,1.31,1.64,1.74.7.43,1.46.64,2.28.64,1.23,0,2.29-.46,3.16-1.37.88-.91,1.32-2.03,1.32-3.33s-.44-2.42-1.32-3.35c-.88-.92-1.93-1.39-3.16-1.39-1.61,0-2.86.71-3.75,2.13l-.03.2h-.25l-1.32-.14.87-9.88.03-.22Z"/><path class="cls-3" d="m182.14,121.6c2.19-1.57,5.78-3.78,10.65-5.16,1.54-.43,6.57-1.74,13.36-1.02,14.18,1.5,16.82,9.78,28.61,12.44,16.22,3.67,21.77-9.61,37.85-4.93,9.86,2.87,11.09,8.82,19.24,8.49,9.43-.38,10.21-8.44,20.94-10.98,11.66-2.76,15.16,5.73,29.09,3.76,10.82-1.53,17.98-7.96,21.41-11.02,3.74-3.34,10.46-9.34,10.3-17.27-.03-1.53-.11-5.45-3.02-7.55-2.32-1.67-5.56-1.55-7.86-.39-2.56,1.29-3.61,3.67-3.99,4.54-1.4,3.19-.78,6.29-1.05,6.31-.23.01-.1-2.21-1.15-4.46-.28-.61-2.11-4.54-6.2-5.22-2.9-.48-5.76.87-7.38,2.87-2.97,3.66-1.22,8.86-.66,10.54.49,1.46,2.23,5.93,10.2,11.15,8.68,5.68,17.21,7.31,21.1,7.86,4.58.65,16.15,2.11,28.19-3.61,3.83-1.82,10.81-5.26,12.79-12.03.43-1.45,1.5-5.13-.66-7.71-1.48-1.77-4.26-2.75-6.89-1.85-2.35.81-4.02,2.93-4.28,5.43"/><circle class="cls-2" cx="146.41" cy="108.08" r="22.74"/><line class="cls-2" x1="133.3" y1="89.5" x2="164.57" y2="121.78"/><line class="cls-2" x1="128.23" y1="94.42" x2="159.53" y2="126.67"/><line class="cls-2" x1="124.84" y1="100.86" x2="153.13" y2="129.82"/><line class="cls-2" x1="123.67" y1="109.24" x2="144.59" y2="130.75"/><line class="cls-2" x1="143.27" y1="99.78" x2="156.17" y2="87.54"/><line class="cls-2" x1="148.27" y1="104.54" x2="161.92" y2="91.45"/><line class="cls-2" x1="152.83" y1="109.66" x2="166.04" y2="96.6"/><line class="cls-2" x1="157.3" y1="114.28" x2="168.72" y2="103.65"/><line class="cls-2" x1="162.27" y1="109.65" x2="169.15" y2="110.11"/><line class="cls-2" x1="157.58" y1="114.57" x2="167.97" y2="115.34"/><line class="cls-2" x1="133.87" y1="89.5" x2="153.94" y2="89.65"/><line class="cls-2" x1="138.3" y1="94.66" x2="148.49" y2="94.82"/><path class="cls-2" d="m165.08,121.01c1.16,1.05,3.33,2.71,6.37,3.33,5.41,1.1,9.59-1.89,10.68-2.74"/></svg>