<?xml version="1.0" encoding="utf-8"?>
<!-- Generator: Adobe Illustrator 24.2.0, SVG Export Plug-In . SVG Version: 6.00 Build 0)  -->
<svg version="1.1" id="Laag_1" xmlns="http://www.w3.org/2000/svg" xmlns:xlink="http://www.w3.org/1999/xlink" x="0px" y="0px"
	 viewBox="0 0 293.3 57.8" style="enable-background:new 0 0 293.3 57.8;" xml:space="preserve">
<style type="text/css">
	.st0{fill:#E32F82;}
	.st1{fill:#FFFFFF;}
</style>
<circle class="st0" cx="29.7" cy="29.1" r="27.9"/>
<path class="st1" d="M46.2,43L41,38c1.9-2.5,3.1-5.5,3.1-8.9c0-8-6.5-14.4-14.4-14.4c-0.5,0-1,0-1.5,0.1l-2.1-7.5l1.6-0.4l-0.4-1.6
	l-4.7,1.2L22.9,8l1.6-0.4l2.1,7.4c-2,0.4-3.8,1.3-5.4,2.5l-4.9-5.6l1.2-1l-1.1-1.3l-3.7,3.2l1.1,1.3l1.2-1.1l4.8,5.6
	c-2.8,2.6-4.6,6.4-4.6,10.6c0,8,6.5,14.4,14.4,14.4c1.3,0,2.5-0.2,3.7-0.5l1.8,7.3l0,0c0.3,0.9,1.4,1.7,1.4,1.7c0.1,0,0.4-1.1,0.2-2
	l-1.8-7.4c1.9-0.7,3.6-1.9,5-3.3l5,4.9v0c0.7,0.7,2,0.7,2.1,0.7C47.1,44.9,46.9,43.7,46.2,43z M42.5,28.5c-1.9-3.7-5-8.1-8.7-11.5
	C38.6,18.6,42.2,23.1,42.5,28.5z M25.5,17c0.6,0.3,1.2,0.7,1.8,1.1l0.6,0.5c-1.3,0.7-2.6,1.2-3.8,1.5c0.3-1.4,0.7-2.4,1-3
	C25.2,17.1,25.4,17.1,25.5,17z M24.8,35.6c-0.1-0.4-0.2-0.8-0.3-1.1l-0.1-0.6c4.6-0.8,8.6-2.5,12.2-5.1c0.1,0.2,0.2,0.4,0.4,0.7
	l0.5,1C33.4,33.4,29.2,35.1,24.8,35.6z M24,32.1c-0.1-0.5-0.2-0.9-0.2-1.4l-0.1-0.6c4.5-1,8.5-3.1,10.8-4.5c0.1,0.1,0.2,0.3,0.3,0.4
	l0.8,1.2C32.2,29.7,28.4,31.4,24,32.1z M23.6,28.3c0-0.6-0.1-1.1-0.1-1.6c0,0,0,0,0,0l0-0.6c3.4-0.7,6.2-1.8,8.6-3.5
	c0.2,0.2,0.3,0.4,0.5,0.6l0.8,1C30.3,26.1,26.7,27.6,23.6,28.3z M23.6,24.3c0-0.7,0.1-1.3,0.2-1.9l0-0.3c1.9-0.3,3.8-1,5.6-2.2
	c0.3,0.2,0.5,0.5,0.8,0.7l0.7,0.7C28.8,22.7,26.5,23.6,23.6,24.3z M16.9,29.1c0-2.1,0.5-4,1.4-5.7c-0.2,4.2,0.4,9.5,1.8,14.2
	C18.1,35.3,16.9,32.3,16.9,29.1z M22.6,39.8L22.6,39.8c-2.7-6.2-3.3-14.4-2.5-19.2c0.8-0.9,1.7-1.6,2.7-2.2
	c-1.5,5-1.5,15.2,2.4,22.8C24.3,40.8,23.4,40.3,22.6,39.8z M25.4,37.4c4.4-0.6,8.7-2.4,12.8-5.3c0.1,0.3,0.3,0.6,0.4,0.9l0.3,0.8
	c-3.4,3.2-7.5,4.9-12.8,5.3c-0.1-0.2-0.2-0.5-0.3-0.7L25.4,37.4z M39.4,37.2c0,0,0,0.2-0.1,0.3c-2.3,2.7-5.8,4.4-9.7,4.4
	c-0.6,0-1.3,0-1.9-0.1l-0.5-0.1l-0.4-0.8c4.9-0.5,9.1-2.2,12.5-5.1C39.5,36.3,39.5,36.9,39.4,37.2z M27.7,16.5
	c0.6-0.1,1.3-0.1,1.9-0.1c0.3,0,0.5,0,0.8,0c5.4,4.1,9.9,10.8,11.7,15.4c0,0,0.1,0.2,0,0.3c-0.3,1.1-0.7,2.2-1.2,3.1
	C40,30.1,34.8,21.2,27.7,16.5z"/>
<g>
	<path class="st0" d="M73,14.7h6.9l4.6,18.5h0.1l6-18.5h5.9l6,19h0.1l4.8-19h6.4l-8.4,28.8h-5.7l-6.4-20h-0.1l-6.4,20h-5.5L73,14.7z
		"/>
	<path class="st0" d="M114.1,33.6c0-1.6,0.3-3,0.9-4.3c0.6-1.3,1.4-2.4,2.3-3.3c1-0.9,2.2-1.6,3.5-2.1c1.3-0.5,2.8-0.7,4.3-0.7
		c1.5,0,3,0.2,4.3,0.7c1.3,0.5,2.5,1.2,3.5,2.1c1,0.9,1.8,2,2.3,3.3c0.6,1.3,0.9,2.7,0.9,4.3c0,1.6-0.3,3-0.9,4.3
		c-0.6,1.3-1.4,2.4-2.3,3.3c-1,0.9-2.2,1.6-3.5,2.1c-1.3,0.5-2.8,0.7-4.3,0.7c-1.5,0-3-0.2-4.3-0.7c-1.3-0.5-2.5-1.2-3.5-2.1
		c-1-0.9-1.8-2-2.3-3.3C114.4,36.6,114.1,35.2,114.1,33.6z M120.2,33.6c0,1.5,0.4,2.7,1.3,3.6c0.9,0.9,2.1,1.4,3.6,1.4
		c1.5,0,2.8-0.5,3.6-1.4c0.9-0.9,1.3-2.1,1.3-3.6c0-1.5-0.4-2.7-1.3-3.6c-0.9-0.9-2.1-1.4-3.6-1.4c-1.5,0-2.7,0.5-3.6,1.4
		S120.2,32.1,120.2,33.6z"/>
	<path class="st0" d="M140.4,12.7h6.1v30.8h-6.1V12.7z"/>
	<path class="st0" d="M151.9,23.7h5.6v2.6h0.1c0.2-0.4,0.6-0.7,1-1.1c0.4-0.4,0.9-0.7,1.4-1c0.5-0.3,1.1-0.5,1.7-0.7
		c0.6-0.2,1.3-0.3,2-0.3c1.5,0,2.8,0.3,4,0.8c1.2,0.5,2.2,1.2,3.1,2.1c0.9,0.9,1.5,2,2,3.2c0.5,1.2,0.7,2.6,0.7,4.1
		c0,1.4-0.2,2.7-0.6,4c-0.4,1.3-1,2.4-1.8,3.4c-0.8,1-1.7,1.8-2.8,2.3c-1.1,0.6-2.4,0.9-3.8,0.9c-1.3,0-2.5-0.2-3.6-0.6
		c-1.1-0.4-2-1.1-2.7-2H158v11.4h-6.1V23.7z M157.5,33.6c0,1.5,0.4,2.7,1.3,3.6c0.9,0.9,2.1,1.4,3.6,1.4c1.5,0,2.8-0.5,3.6-1.4
		c0.9-0.9,1.3-2.1,1.3-3.6c0-1.5-0.4-2.7-1.3-3.6c-0.9-0.9-2.1-1.4-3.6-1.4c-1.5,0-2.7,0.5-3.6,1.4
		C157.9,30.9,157.5,32.1,157.5,33.6z"/>
	<path class="st0" d="M177.7,12.7h6.1v30.8h-6.1V12.7z"/>
	<path class="st0" d="M207.4,40.1c-1,1.2-2.2,2.2-3.7,2.9c-1.5,0.7-3,1-4.6,1c-1.5,0-3-0.2-4.3-0.7c-1.3-0.5-2.5-1.2-3.5-2.1
		c-1-0.9-1.8-2-2.3-3.3c-0.6-1.3-0.9-2.7-0.9-4.3c0-1.6,0.3-3,0.9-4.3c0.6-1.3,1.4-2.4,2.3-3.3c1-0.9,2.2-1.6,3.5-2.1
		c1.3-0.5,2.8-0.7,4.3-0.7c1.4,0,2.7,0.2,3.9,0.7c1.2,0.5,2.1,1.2,2.9,2.1c0.8,0.9,1.4,2,1.9,3.3c0.4,1.3,0.7,2.7,0.7,4.3v1.9h-14.2
		c0.2,1.2,0.8,2.1,1.6,2.8c0.8,0.7,1.8,1,3,1c1,0,1.9-0.2,2.5-0.7c0.7-0.4,1.3-1,1.8-1.7L207.4,40.1z M202.2,31.4c0-1-0.3-1.9-1-2.6
		c-0.7-0.7-1.6-1.1-2.7-1.1c-0.7,0-1.3,0.1-1.8,0.3c-0.5,0.2-1,0.5-1.3,0.8c-0.4,0.3-0.7,0.7-0.9,1.2c-0.2,0.4-0.3,0.9-0.3,1.4
		H202.2z"/>
	<path class="st0" d="M212.1,17.5c0-1,0.3-1.8,1-2.5c0.7-0.7,1.5-1,2.5-1c1,0,1.8,0.3,2.5,1c0.7,0.7,1,1.5,1,2.5c0,1-0.3,1.8-1,2.5
		c-0.7,0.7-1.5,1-2.5,1c-1,0-1.8-0.3-2.5-1C212.5,19.3,212.1,18.5,212.1,17.5z M212.6,23.7h6.1v19.8h-6.1V23.7z"/>
	<path class="st0" d="M223.9,23.7h5.9v2.7h0.1c0.2-0.4,0.5-0.8,0.8-1.1c0.4-0.4,0.8-0.7,1.3-1c0.5-0.3,1-0.5,1.7-0.7
		c0.6-0.2,1.3-0.3,2-0.3c1.5,0,2.8,0.2,3.7,0.7c1,0.5,1.7,1.1,2.2,2c0.5,0.8,0.9,1.8,1.1,3c0.2,1.1,0.3,2.4,0.3,3.7v10.9h-6.1v-9.7
		c0-0.6,0-1.2-0.1-1.8c0-0.6-0.2-1.2-0.4-1.7c-0.2-0.5-0.5-0.9-0.9-1.3c-0.4-0.3-1-0.5-1.8-0.5c-0.8,0-1.4,0.1-1.9,0.4
		c-0.5,0.3-0.9,0.7-1.1,1.1c-0.3,0.5-0.4,1-0.5,1.6c-0.1,0.6-0.1,1.2-0.1,1.9v9.9h-6.1V23.7z"/>
	<path class="st0" d="M247.9,40c0-0.5,0.1-1,0.3-1.5c0.2-0.5,0.5-0.9,0.8-1.2c0.3-0.3,0.7-0.6,1.2-0.8c0.5-0.2,1-0.3,1.5-0.3
		c0.5,0,1,0.1,1.5,0.3c0.5,0.2,0.9,0.5,1.2,0.8c0.3,0.3,0.6,0.7,0.8,1.2c0.2,0.5,0.3,1,0.3,1.5c0,0.5-0.1,1-0.3,1.5
		c-0.2,0.5-0.5,0.9-0.8,1.2c-0.3,0.3-0.7,0.6-1.2,0.8c-0.5,0.2-1,0.3-1.5,0.3c-0.5,0-1-0.1-1.5-0.3c-0.5-0.2-0.9-0.5-1.2-0.8
		c-0.3-0.3-0.6-0.7-0.8-1.2C248,41,247.9,40.5,247.9,40z"/>
	<path class="st0" d="M260.3,23.7h5.9v2.7h0.1c0.2-0.4,0.5-0.8,0.8-1.1c0.4-0.4,0.8-0.7,1.3-1c0.5-0.3,1-0.5,1.7-0.7
		c0.6-0.2,1.3-0.3,2-0.3c1.5,0,2.8,0.2,3.7,0.7c1,0.5,1.7,1.1,2.2,2c0.5,0.8,0.9,1.8,1.1,3s0.3,2.4,0.3,3.7v10.9h-6.1v-9.7
		c0-0.6,0-1.2-0.1-1.8c0-0.6-0.2-1.2-0.4-1.7c-0.2-0.5-0.5-0.9-0.9-1.3c-0.4-0.3-1-0.5-1.8-0.5c-0.8,0-1.4,0.1-1.9,0.4
		c-0.5,0.3-0.9,0.7-1.1,1.1c-0.3,0.5-0.4,1-0.5,1.6c-0.1,0.6-0.1,1.2-0.1,1.9v9.9h-6.1V23.7z"/>
	<path class="st0" d="M284.4,12.7h6.1v30.8h-6.1V12.7z"/>
</g>
</svg>
